<svg width="200" height="200" xmlns="http://www.w3.org/2000/svg"><path d="M73.982 100.533c0 13.89 10.363 25.355 25.355 25.355 8.599 0 16.315-3.748 20.063-8.378-.22-2.866-.44-5.953-.44-9.701V83.116c-3.97-4.41-11.465-7.938-19.623-7.938-14.992 0-25.355 11.465-25.355 25.355zm80.033 47.403c-10.142 0-19.622-4.63-26.016-11.686-5.292 4.85-15.213 11.686-30.205 11.686-20.505 0-48.064-16.095-48.064-47.403 0-30.205 25.795-47.402 46.08-47.402 7.936 0 16.315 1.764 24.031 6.834v-4.63h23.37v53.135c0 6.835.662 9.701 2.206 12.347 1.763 2.866 4.63 5.071 9.26 5.071 13.228 0 15.874-18.52 15.874-30.867 0-39.465-33.072-67.245-69.67-67.245-39.466 0-71.435 32.19-71.435 72.757 0 40.127 31.528 72.758 70.552 72.758 16.316 0 31.749-4.851 43.655-14.331l13.67 20.063c-14.993 11.244-34.175 18.52-55.781 18.52-54.017 0-96.349-43.213-96.349-97.01 0-53.355 41.67-97.01 95.467-97.01 49.828 0 94.143 38.584 94.143 91.498 0 28.442-12.567 52.915-40.788 52.915z" fill="#000" fill-rule="evenodd"/></svg>